<svg width="243" height="243" fill="none" xmlns="http://www.w3.org/2000/svg"><path stroke="#A7A9BE" d="M4.828 145.373L147.653 5.369M.628 141.088L143.452 1.084M99.331 241.779l142.824-140.004M95.131 237.495L237.955 97.49M94.639 4.857l140.004 142.825M98.907.64l140.004 142.824M1.089 96.56l140.004 142.824M5.357 92.343l140.004 142.824"/><path d="M109.453 127.609c0 1.594-.109 3.157-.328 4.688a75.198 75.198 0 00-.422 4.687 2.49 2.49 0 00-.75-.515 1.471 1.471 0 00-.797-.235c-.344 0-.672.11-.984.328-.313.219-.469.5-.469.844 0 .375.172.625.516.75.375.125.75.188 1.125.188.312 0 .531-.016.656-.047 0 .375-.109.765-.328 1.172-.188.375-.438.75-.75 1.125a10.04 10.04 0 01-.938 1.078l-.843.844a4.729 4.729 0 00-.61.796c-.219.344-.469.688-.75 1.032-.25.312-.515.594-.797.844-.281.218-.562.328-.843.328-.313 0-.563-.078-.75-.235a.904.904 0 00-.657-.281c-.343 0-.562.188-.656.562a5.808 5.808 0 00-.094 1.032v.562c0 .156-.328.36-.984.61a60.63 60.63 0 01-2.39.843l-2.86.891c-.969.281-1.781.562-2.438.844a30.058 30.058 0 01-3.89 1.312 16.019 16.019 0 01-4.078.516c-1.031 0-2.031-.141-3-.422a57.4 57.4 0 01-2.86-.844c-.937-.344-1.89-.64-2.859-.89a10.197 10.197 0 00-2.953-.422c-.406 0-.938.062-1.594.187-.656.125-1.156.313-1.5.563-.156.125-.312.344-.469.656-.156.344-.343.516-.562.516-.156 0-.375-.063-.656-.188a17.67 17.67 0 01-.61-.281 5.968 5.968 0 01-1.828-1.453c-.5-.625-.922-1.297-1.266-2.016a9.536 9.536 0 01-.75-2.25 12.406 12.406 0 01-.234-2.344c0-.531.047-1.046.14-1.546a6.946 6.946 0 00.188-1.594c0-.75-.093-1.485-.281-2.203a10.345 10.345 0 01-.234-2.203c0-.532.078-1.063.234-1.594a4.767 4.767 0 00.281-1.594c0-.406-.093-.781-.281-1.125a2.59 2.59 0 01-.281-1.172c0-.281.093-.515.281-.703.219-.188.328-.406.328-.656 0-.375-.016-.75-.047-1.125s-.047-.75-.047-1.125v-.797c.032-.375.078-.735.141-1.078.063-.344.172-.641.328-.891a.734.734 0 01.656-.375c.563 0 1.125.359 1.688 1.078.594.688 1.125 1.5 1.594 2.438.5.937.906 1.875 1.218 2.812.313.938.47 1.641.47 2.11a.749.749 0 01-.188.468.636.636 0 01-.47.188c.126.219.266.547.423.984.156.438.234.781.234 1.031 0 .376-.062.735-.187 1.079a4.064 4.064 0 00-.141 1.078c0 .312.063.609.188.89.156.282.312.547.468.797.25.375.469.656.656.844.188.188.391.328.61.422.219.062.453.109.703.14.281.032.64.063 1.078.094a18.188 18.188 0 004.64 4.641c1.407.312 2.798.562 4.173.75 1.375.187 2.765.281 4.171.281 1.157 0 2.157-.125 3-.375.876-.25 1.672-.578 2.391-.984.75-.407 1.469-.86 2.156-1.36.688-.531 1.407-1.078 2.157-1.64a22.078 22.078 0 011.687-1.078 31.83 31.83 0 001.734-1.079 15.255 15.255 0 001.594-1.218c.5-.469.922-1 1.266-1.594.219-.375.531-.75.937-1.125.438-.406.657-.844.657-1.313 0-.187-.016-.328-.047-.421-.125-1-.219-1.969-.281-2.907-.032-.968-.079-1.953-.141-2.953-.063-.937-.266-1.64-.609-2.109a4.098 4.098 0 00-1.313-1.219 16.2 16.2 0 00-1.64-.984c-.594-.313-1.172-.75-1.735-1.313-.594-.594-1.266-.968-2.016-1.125a13.028 13.028 0 00-2.25-.281 57.54 57.54 0 01-2.343-.141c-.75-.093-1.454-.39-2.11-.89-.187-.125-.344-.188-.469-.188-.28 0-.562.094-.843.281-.25.157-.531.235-.844.235-.469 0-.953-.063-1.453-.188a24.192 24.192 0 01-1.406-.421l-1.407-.469a7.53 7.53 0 00-1.406-.328 22.133 22.133 0 00-1.547-.188 11.018 11.018 0 01-1.078-.141 10.554 10.554 0 01-1.031-.374 13.861 13.861 0 01-1.406-.844 18.111 18.111 0 00-5.204-2.344 16.573 16.573 0 00-1.359-2.672 17.354 17.354 0 00-1.031-.609 18.457 18.457 0 01-.938-.703c-.187-.313-.437-.86-.75-1.641a75.833 75.833 0 01-.843-2.484 95.403 95.403 0 01-.75-2.532c-.188-.781-.282-1.343-.282-1.687 0-.719.078-1.406.235-2.063.156-.656.515-1.25 1.078-1.78.094-.063.203-.141.328-.235.156-.125.234-.266.234-.422 0-.156-.125-.266-.375-.328-.218-.094-.328-.266-.328-.516a.36.36 0 01.047-.14.77.77 0 00.047-.235 7.264 7.264 0 01.984-1.969c.438-.625.938-1.218 1.5-1.78a19.85 19.85 0 011.735-1.548c.625-.5 1.219-.953 1.781-1.36a3.78 3.78 0 001.031-1.077c.313-.438.64-.75.985-.938h.656a4.641 4.641 0 011.312 0h.704c.343-.125.578-.265.703-.422a7.41 7.41 0 01.375-.515c.125-.156.28-.281.468-.375.22-.094.594-.14 1.125-.14.344 0 .688.015 1.032.046h1.03c1.188 0 2.36-.016 3.516-.047 1.188-.031 2.376-.047 3.563-.047.844 0 1.672.016 2.484.047.844 0 1.688.063 2.532.188a7.296 7.296 0 011.64.375 5.95 5.95 0 001.688.234c.562 0 .953-.11 1.172-.328.25-.219.437-.453.562-.703a5.81 5.81 0 01.516-.703c.187-.22.515-.329.984-.329.656 0 1.328.172 2.016.516.718.344 1.39.625 2.015.844l-.047.187a2.98 2.98 0 00-.14.938c0 .531.078 1.062.234 1.594l.563 1.5c.187.5.359 1 .515 1.5.188.5.282 1.03.282 1.593 0 .344-.032.672-.094.985a4.297 4.297 0 00-.094.937c0 .625.125 1.078.375 1.36.25.25.375.484.375.703 0 .25-.109.469-.328.656-.219.156-.328.406-.328.75 0 .813.047 1.625.14 2.437.094.782.141 1.579.141 2.391 0 .281-.015.703-.047 1.266 0 .562-.062 1.125-.187 1.687a3.97 3.97 0 01-.516 1.406c-.219.407-.547.61-.984.61-.469 0-.922-.172-1.36-.516a8.745 8.745 0 01-1.078-1.078 4.265 4.265 0 01-.89-1.406 14.106 14.106 0 01-.47-1.641 25.2 25.2 0 00-.421-1.64 5.334 5.334 0 00-.703-1.547c-.5-.719-.984-1.438-1.453-2.156l-1.313-2.25c-.344-.563-.64-.954-.89-1.172a1.8 1.8 0 00-.797-.422 3.115 3.115 0 00-.985-.14 7.85 7.85 0 01-1.312-.141 11.1 11.1 0 01-1.688-.422 25.163 25.163 0 00-1.64-.516 14.147 14.147 0 00-1.64-.469 6.282 6.282 0 00-1.688-.234c-.907 0-1.829.14-2.766.422-.938.281-1.875.64-2.813 1.078-.937.406-1.859.844-2.765 1.312-.906.438-1.781.813-2.625 1.125-.781 1.657-1.172 3.438-1.172 5.344 0 1.375.156 2.5.469 3.375.312.875.734 1.625 1.265 2.25a11.49 11.49 0 001.875 1.594c.72.469 1.47.969 2.25 1.5.813.531 1.61.89 2.391 1.078.813.156 1.688.234 2.625.234.531 0 1.047-.015 1.547-.046a26.498 26.498 0 011.594-.047 5.96 5.96 0 011.687.234c.531.156 1.047.344 1.547.563.531.187 1.063.359 1.594.515a5.793 5.793 0 001.64.235c.532 0 1.032-.032 1.5-.094.5-.063 1-.094 1.5-.094.438 0 .829.109 1.172.328a6.76 6.76 0 011.031.703c.344.25.688.485 1.032.703.375.219.781.344 1.219.375.624.313 1.14.594 1.546.844.407.25.766.516 1.078.797.344.281.657.625.938 1.031.312.407.656.907 1.031 1.5.344.594.797 1.11 1.36 1.547a5.146 5.146 0 011.359 1.594c.125.219.203.484.234.797.032.281.078.562.141.843.063.25.156.485.281.704.156.187.391.296.703.328.032.344.047.687.047 1.031.032.313.047.641.047.984zm66.131 0c0 1.594-.109 3.157-.328 4.688a75.198 75.198 0 00-.422 4.687 2.465 2.465 0 00-.75-.515 1.471 1.471 0 00-.797-.235c-.343 0-.671.11-.984.328-.312.219-.469.5-.469.844 0 .375.172.625.516.75.375.125.75.188 1.125.188.312 0 .531-.016.656-.047 0 .375-.109.765-.328 1.172-.187.375-.437.75-.75 1.125-.281.375-.594.734-.937 1.078l-.844.844a4.729 4.729 0 00-.61.796c-.218.344-.468.688-.75 1.032-.25.312-.515.594-.796.844-.282.218-.563.328-.844.328-.313 0-.563-.078-.75-.235a.901.901 0 00-.656-.281c-.344 0-.563.188-.657.562a5.807 5.807 0 00-.093 1.032v.562c0 .156-.329.36-.985.61-.656.25-1.453.531-2.39.843l-2.86.891c-.969.281-1.781.562-2.437.844a30.073 30.073 0 01-3.891 1.312 16.016 16.016 0 01-4.078.516c-1.031 0-2.031-.141-3-.422a57.043 57.043 0 01-2.859-.844 30.237 30.237 0 00-2.86-.89 10.195 10.195 0 00-2.953-.422c-.406 0-.937.062-1.594.187-.656.125-1.156.313-1.5.563-.156.125-.312.344-.468.656-.157.344-.344.516-.563.516-.156 0-.375-.063-.656-.188a18.023 18.023 0 01-.61-.281 5.976 5.976 0 01-1.828-1.453c-.5-.625-.922-1.297-1.265-2.016a9.509 9.509 0 01-.75-2.25 12.35 12.35 0 01-.235-2.344c0-.531.047-1.046.141-1.546a6.945 6.945 0 00.187-1.594c0-.75-.093-1.485-.281-2.203a10.358 10.358 0 01-.234-2.203c0-.532.078-1.063.234-1.594a4.755 4.755 0 00.281-1.594c0-.406-.093-.781-.281-1.125a2.596 2.596 0 01-.281-1.172c0-.281.094-.515.281-.703.219-.188.328-.406.328-.656 0-.375-.015-.75-.047-1.125-.031-.375-.046-.75-.046-1.125v-.797a11.3 11.3 0 01.14-1.078c.063-.344.172-.641.328-.891.157-.25.375-.375.657-.375.562 0 1.125.359 1.687 1.078.594.688 1.125 1.5 1.594 2.438.5.937.906 1.875 1.219 2.812.312.938.468 1.641.468 2.11a.748.748 0 01-.187.468.636.636 0 01-.469.188c.125.219.266.547.422.984.156.438.234.781.234 1.031 0 .376-.062.735-.187 1.079a4.064 4.064 0 00-.141 1.078c0 .312.063.609.188.89.156.282.312.547.468.797.25.375.469.656.657.844.187.188.39.328.609.422.219.062.453.109.703.14.281.032.641.063 1.078.094a18.143 18.143 0 004.641 4.641c1.406.312 2.797.562 4.172.75 1.375.187 2.765.281 4.172.281 1.156 0 2.156-.125 3-.375.875-.25 1.672-.578 2.39-.984.75-.407 1.469-.86 2.157-1.36.687-.531 1.406-1.078 2.156-1.64a22.146 22.146 0 011.687-1.078 31.963 31.963 0 001.735-1.079 15.299 15.299 0 001.593-1.218c.5-.469.922-1 1.266-1.594.219-.375.531-.75.938-1.125.437-.406.656-.844.656-1.313 0-.187-.016-.328-.047-.421-.125-1-.219-1.969-.281-2.907a98.963 98.963 0 00-.141-2.953c-.062-.937-.266-1.64-.609-2.109a4.098 4.098 0 00-1.313-1.219 16.2 16.2 0 00-1.64-.984c-.594-.313-1.172-.75-1.735-1.313-.594-.594-1.265-.968-2.015-1.125a13.033 13.033 0 00-2.25-.281 57.442 57.442 0 01-2.344-.141c-.75-.093-1.453-.39-2.11-.89-.187-.125-.343-.188-.468-.188-.282 0-.563.094-.844.281-.25.157-.531.235-.844.235-.469 0-.953-.063-1.453-.188a24.183 24.183 0 01-1.406-.421l-1.406-.469a7.536 7.536 0 00-1.407-.328 22.085 22.085 0 00-1.547-.188 11.024 11.024 0 01-1.078-.141 10.599 10.599 0 01-1.031-.374 13.807 13.807 0 01-1.406-.844 18.119 18.119 0 00-5.203-2.344 16.562 16.562 0 00-1.36-2.672 17.036 17.036 0 00-1.031-.609 18.448 18.448 0 01-.937-.703c-.188-.313-.438-.86-.75-1.641a73.52 73.52 0 01-.844-2.484 96.931 96.931 0 01-.75-2.532c-.188-.781-.281-1.343-.281-1.687 0-.719.078-1.406.234-2.063.156-.656.516-1.25 1.078-1.78.094-.063.203-.141.328-.235.156-.125.235-.266.235-.422 0-.156-.125-.266-.375-.328-.219-.094-.329-.266-.329-.516 0-.031.016-.078.047-.14a.75.75 0 00.047-.235 7.258 7.258 0 01.985-1.969c.437-.625.937-1.218 1.5-1.78a19.745 19.745 0 011.734-1.548 45.99 45.99 0 011.781-1.36c.406-.28.75-.64 1.031-1.077.313-.438.641-.75.985-.938h.656a4.65 4.65 0 011.313 0h.703c.343-.125.578-.265.703-.422a7.41 7.41 0 01.375-.515c.125-.156.281-.281.469-.375.218-.094.593-.14 1.125-.14.343 0 .687.015 1.031.046h1.031c1.188 0 2.359-.016 3.516-.047a136.47 136.47 0 013.562-.047c.844 0 1.672.016 2.485.047.843 0 1.687.063 2.531.188a7.35 7.35 0 011.64.375 5.956 5.956 0 001.688.234c.562 0 .953-.11 1.172-.328.25-.219.437-.453.562-.703.157-.25.328-.485.516-.703.187-.22.516-.329.984-.329.657 0 1.328.172 2.016.516.719.344 1.391.625 2.016.844l-.047.187a2.945 2.945 0 00-.141.938c0 .531.078 1.062.234 1.594l.563 1.5c.187.5.359 1 .516 1.5.187.5.281 1.03.281 1.593 0 .344-.031.672-.094.985a4.36 4.36 0 00-.094.937c0 .625.125 1.078.375 1.36.25.25.375.484.375.703 0 .25-.109.469-.328.656-.219.156-.328.406-.328.75 0 .813.047 1.625.141 2.437.093.782.14 1.579.14 2.391 0 .281-.015.703-.047 1.266 0 .562-.062 1.125-.187 1.687a3.97 3.97 0 01-.516 1.406c-.218.407-.547.61-.984.61-.469 0-.922-.172-1.359-.516a8.759 8.759 0 01-1.079-1.078 4.257 4.257 0 01-.89-1.406 14.01 14.01 0 01-.469-1.641 25.328 25.328 0 00-.422-1.64 5.315 5.315 0 00-.703-1.547c-.5-.719-.984-1.438-1.453-2.156l-1.313-2.25c-.343-.563-.64-.954-.89-1.172a1.802 1.802 0 00-.797-.422 3.111 3.111 0 00-.984-.14 7.85 7.85 0 01-1.313-.141 11.093 11.093 0 01-1.687-.422 25.39 25.39 0 00-1.641-.516 14.107 14.107 0 00-1.641-.469 6.278 6.278 0 00-1.687-.234c-.906 0-1.828.14-2.766.422-.937.281-1.875.64-2.812 1.078-.938.406-1.86.844-2.766 1.312-.906.438-1.781.813-2.625 1.125-.781 1.657-1.172 3.438-1.172 5.344 0 1.375.156 2.5.469 3.375.312.875.734 1.625 1.266 2.25a11.449 11.449 0 001.875 1.594c.718.469 1.468.969 2.25 1.5.812.531 1.609.89 2.39 1.078.813.156 1.688.234 2.625.234.531 0 1.047-.015 1.547-.046a26.508 26.508 0 011.594-.047c.594 0 1.156.078 1.687.234.532.156 1.047.344 1.547.563.531.187 1.063.359 1.594.515a5.792 5.792 0 001.641.235c.531 0 1.031-.032 1.5-.094.5-.063 1-.094 1.5-.094.437 0 .828.109 1.171.328a6.77 6.77 0 011.032.703c.343.25.687.485 1.031.703.375.219.781.344 1.219.375.625.313 1.14.594 1.547.844.406.25.765.516 1.078.797a5 5 0 01.937 1.031c.313.407.656.907 1.031 1.5.344.594.797 1.11 1.36 1.547a5.146 5.146 0 011.359 1.594c.125.219.203.484.235.797.031.281.078.562.14.843.063.25.156.485.281.704.157.187.391.296.704.328.031.344.046.687.046 1.031.032.313.047.641.047.984z" fill="#A7A9BE"/></svg>